<svg xmlns="http://www.w3.org/2000/svg" id="graphic" width="872" height="872"><g id="facets"><g class="facet" transform="translate(45,10)" opacity="1"><rect class="facet-title-bg" height="0" fill="#eeeeee" x="0" y="0" clip-path="url(#facet-clip-0)"/><text class="facet-title" y="0" font-size="17.5px" font-weight="bold" dx="0" x="0" fill="#333333" clip-path="url(#facet-clip-0)" opacity="0"/><g class="plot"><clipPath class="facet-clip" id="facet-clip-0"><rect width="831" height="859" transform="translate(-7,-21)"/></clipPath><g class="bg"><rect fill="none" width="817" height="817" style="fill: none;"/></g><g class="interaction"><g class="series"/><g class="series"/><g class="series"/><g class="series"/><g class="series"/><g class="series"/><g class="series"/><g class="series"/></g><g class="axes"><g class="y axis" fill="none" font-size="10" font-family="sans-serif" text-anchor="end" style="font-family: Poppins;"><path class="domain" stroke="#eeeeee" d="M0.5,817.5V0.5" stroke-dasharray="0" style="visibility: hidden;"/><g class="tick" opacity="1" transform="translate(0,817.5)" style="visibility: visible;"><line stroke="#eeeeee" x2="817" stroke-dasharray="0"/><text fill="rgb(153, 153, 153)" x="-3" dy="0.33em" opacity="1" text-anchor="end" font-size="12">0%</text></g><g class="tick" opacity="1" transform="translate(0,735.8)" style="visibility: visible;"><line stroke="#eeeeee" x2="817" stroke-dasharray="0"/><text fill="rgb(153, 153, 153)" x="-3" dy="0.33em" opacity="1" text-anchor="end" font-size="12">10%</text></g><g class="tick" opacity="1" transform="translate(0,654.1)" style="visibility: visible;"><line stroke="#eeeeee" x2="817" stroke-dasharray="0"/><text fill="rgb(153, 153, 153)" x="-3" dy="0.33em" opacity="1" text-anchor="end" font-size="12">20%</text></g><g class="tick" opacity="1" transform="translate(0,572.4)" style="visibility: visible;"><line stroke="#eeeeee" x2="817" stroke-dasharray="0"/><text fill="rgb(153, 153, 153)" x="-3" dy="0.33em" opacity="1" text-anchor="end" font-size="12">30%</text></g><g class="tick" opacity="1" transform="translate(0,490.7)" style="visibility: visible;"><line stroke="#eeeeee" x2="817" stroke-dasharray="0"/><text fill="rgb(153, 153, 153)" x="-3" dy="0.33em" opacity="1" text-anchor="end" font-size="12">40%</text></g><g class="tick" opacity="1" transform="translate(0,409)" style="visibility: visible;"><line stroke="#eeeeee" x2="817" stroke-dasharray="0"/><text fill="rgb(153, 153, 153)" x="-3" dy="0.33em" opacity="1" text-anchor="end" font-size="12">50%</text></g><g class="tick" opacity="1" transform="translate(0,327.3)" style="visibility: visible;"><line stroke="#eeeeee" x2="817" stroke-dasharray="0"/><text fill="rgb(153, 153, 153)" x="-3" dy="0.33em" opacity="1" text-anchor="end" font-size="12">60%</text></g><g class="tick" opacity="1" transform="translate(0,245.60000000000002)" style="visibility: visible;"><line stroke="#eeeeee" x2="817" stroke-dasharray="0"/><text fill="rgb(153, 153, 153)" x="-3" dy="0.33em" opacity="1" text-anchor="end" font-size="12">70%</text></g><g class="tick" opacity="1" transform="translate(0,163.89999999999998)" style="visibility: visible;"><line stroke="#eeeeee" x2="817" stroke-dasharray="0"/><text fill="rgb(153, 153, 153)" x="-3" dy="0.33em" opacity="1" text-anchor="end" font-size="12">80%</text></g><g class="tick" opacity="1" transform="translate(0,82.19999999999993)" style="visibility: visible;"><line stroke="#eeeeee" x2="817" stroke-dasharray="0"/><text fill="rgb(153, 153, 153)" x="-3" dy="0.33em" opacity="1" text-anchor="end" font-size="12">90%</text></g><g class="tick" opacity="1" transform="translate(0,0.5)" style="visibility: visible;"><line stroke="#eeeeee" x2="817" stroke-dasharray="0"/><text fill="rgb(153, 153, 153)" x="-3" dy="0.33em" opacity="1" text-anchor="end" font-size="12">100%</text></g></g><g class="x axis" transform="translate(0,817)" fill="none" font-size="10" font-family="sans-serif" text-anchor="middle" style="font-family: Poppins;"><path class="domain" stroke="#eeeeee" d="M0.5,0.5H817.5" stroke-dasharray="1"/><g class="tick" opacity="1" transform="translate(63.288732394366164,0)"><line stroke="#eeeeee" y2="6" stroke-dasharray="1"/><text fill="rgb(153, 153, 153)" y="9" dy="-9" opacity="1" dominant-baseline="central" font-size="12" transform="translate(0, 15)" dx="0" style="visibility: visible;">até 2</text></g><g class="tick" opacity="1" transform="translate(178.35915492957741,0)"><line stroke="#eeeeee" y2="6" stroke-dasharray="1"/><text fill="rgb(153, 153, 153)" y="9" dy="-9" opacity="1" dominant-baseline="central" font-size="12" transform="translate(0, 15)" dx="0" style="visibility: visible;">2 a 3</text></g><g class="tick" opacity="1" transform="translate(293.4295774647887,0)"><line stroke="#eeeeee" y2="6" stroke-dasharray="1"/><text fill="rgb(153, 153, 153)" y="9" dy="-9" opacity="1" dominant-baseline="central" font-size="12" transform="translate(0, 15)" dx="0" style="visibility: visible;">3 a 6</text></g><g class="tick" opacity="1" transform="translate(408.49999999999994,0)"><line stroke="#eeeeee" y2="6" stroke-dasharray="1"/><text fill="rgb(153, 153, 153)" y="9" dy="-9" opacity="1" dominant-baseline="central" font-size="12" transform="translate(0, 15)" dx="0" style="visibility: visible;">7 a 10</text></g><g class="tick" opacity="1" transform="translate(523.5704225352113,0)"><line stroke="#eeeeee" y2="6" stroke-dasharray="1"/><text fill="rgb(153, 153, 153)" y="9" dy="-9" opacity="1" dominant-baseline="central" font-size="12" transform="translate(0, 15)" dx="0" style="visibility: visible;">10 a 15</text></g><g class="tick" opacity="1" transform="translate(638.6408450704225,0)"><line stroke="#eeeeee" y2="6" stroke-dasharray="1"/><text fill="rgb(153, 153, 153)" y="9" dy="-9" opacity="1" dominant-baseline="central" font-size="12" transform="translate(0, 15)" dx="0" style="visibility: visible;">15 a 25</text></g><g class="tick" opacity="1" transform="translate(753.7112676056338,0)"><line stroke="#eeeeee" y2="6" stroke-dasharray="1"/><text fill="rgb(153, 153, 153)" y="9" dy="-9" opacity="1" dominant-baseline="central" font-size="12" transform="translate(0, 15)" dx="0" style="visibility: visible;">25</text></g></g></g></g></g></g><g class="annotations below"><g class="axis-highlights" transform="translate(45, 10)" style="opacity: 1;"><g class="area x" transform="translate(471.78873239436615, 0)"><rect height="817" width="333.70422535211276" fill="#555555" opacity="0.1"/><text transform="translate(0, 6) rotate(-90)" fill="#888888" text-anchor="end" dominant-baseline="hanging" dy="0.33em" font-size="12">Educacao</text></g></g></g><g id="areas"><g class="series" pointer-events="none"><path class="area" transform="translate(45,10)" fill-opacity="0" fill="rgb(128, 128, 128)" clip-path="url(#clip-0-0)" d="M11.507042253521092,817C49.86384976525818,817,88.22065727699527,817,126.57746478873236,817C164.93427230046944,817,203.29107981220653,817,241.64788732394362,817C280.0046948356807,817,318.3615023474178,817,356.7183098591549,817C395.075117370892,817,433.43192488262906,817,471.78873239436615,817C510.14553990610324,817,548.5023474178404,817,586.8591549295775,817C625.2159624413146,817,663.5727699530516,817,701.9295774647887,817L701.9295774647887,801.4754475447545C663.5727699530516,801.6318220271515,625.2159624413146,801.7881965095486,586.8591549295775,802.047404740474C548.5023474178404,802.3066129713994,510.14553990610324,803.0306969303069,471.78873239436615,803.0306969303069C433.43192488262906,803.0306969303069,395.075117370892,802.8644864486448,356.7183098591549,802.8644864486448C318.3615023474178,802.8644864486448,280.0046948356807,805.2862898367421,241.64788732394362,805.5608560856085C203.29107981220653,805.835422334475,164.93427230046944,805.9727054589082,126.57746478873236,805.9727054589082C88.22065727699527,805.9727054589082,49.86384976525818,805.2777735873683,11.507042253521092,804.5828417158284Z"/></g><g class="series" pointer-events="none"><path class="area" transform="translate(45,10)" fill-opacity="0" fill="rgb(128, 128, 128)" clip-path="url(#clip-0-1)" d="M11.507042253521092,804.5828417158284C49.86384976525818,805.2777735873683,88.22065727699527,805.9727054589082,126.57746478873236,805.9727054589082C164.93427230046944,805.9727054589082,203.29107981220653,805.835422334475,241.64788732394362,805.5608560856085C280.0046948356807,805.2862898367421,318.3615023474178,802.8644864486448,356.7183098591549,802.8644864486448C395.075117370892,802.8644864486448,433.43192488262906,803.0306969303069,471.78873239436615,803.0306969303069C510.14553990610324,803.0306969303069,548.5023474178404,802.3066129713994,586.8591549295775,802.047404740474C625.2159624413146,801.7881965095486,663.5727699530516,801.6318220271515,701.9295774647887,801.4754475447545L701.9295774647887,785.1338133813381C663.5727699530516,786.2777277727773,625.2159624413146,787.4216421642165,586.8591549295775,787.4216421642165C548.5023474178404,787.4216421642165,510.14553990610324,785.2765786860991,471.78873239436615,784.0781921807819C433.43192488262906,782.8798056754647,395.075117370892,780.2313231323133,356.7183098591549,780.2313231323133C318.3615023474178,780.2313231323133,280.0046948356807,780.3130313031303,241.64788732394362,780.4764476447644C203.29107981220653,780.6398639863986,164.93427230046944,784.4082183563287,126.57746478873236,784.4082183563287C88.22065727699527,784.4082183563287,49.86384976525818,780.6079187972025,11.507042253521092,776.8076192380762Z"/></g><g class="series" pointer-events="none"><path class="area" transform="translate(45,10)" fill-opacity="0" fill="rgb(128, 128, 128)" clip-path="url(#clip-0-2)" d="M11.507042253521092,776.8076192380762C49.86384976525818,780.6079187972025,88.22065727699527,784.4082183563287,126.57746478873236,784.4082183563287C164.93427230046944,784.4082183563287,203.29107981220653,780.6398639863986,241.64788732394362,780.4764476447644C280.0046948356807,780.3130313031303,318.3615023474178,780.2313231323133,356.7183098591549,780.2313231323133C395.075117370892,780.2313231323133,433.43192488262906,782.8798056754647,471.78873239436615,784.0781921807819C510.14553990610324,785.2765786860991,548.5023474178404,787.4216421642165,586.8591549295775,787.4216421642165C625.2159624413146,787.4216421642165,663.5727699530516,786.2777277727773,701.9295774647887,785.1338133813381L701.9295774647887,739.2955295529553C663.5727699530516,746.8126812681269,625.2159624413146,754.3298329832984,586.8591549295775,754.3298329832984C548.5023474178404,754.3298329832984,510.14553990610324,748.197768615311,471.78873239436615,747.1534846515349C433.43192488262906,746.1092006877587,395.075117370892,745.5870587058706,356.7183098591549,745.5870587058706C318.3615023474178,745.5870587058706,280.0046948356807,754.1504826497447,241.64788732394362,758.3335333533354C203.29107981220653,762.516584056926,164.93427230046944,770.6853629274145,126.57746478873236,770.6853629274145C88.22065727699527,770.6853629274145,49.86384976525818,768.6815975720965,11.507042253521092,766.6778322167784Z"/></g><g class="series" pointer-events="none"><path class="area" transform="translate(45,10)" fill-opacity="0" fill="rgb(128, 128, 128)" clip-path="url(#clip-0-3)" d="M11.507042253521092,766.6778322167784C49.86384976525818,768.6815975720965,88.22065727699527,770.6853629274145,126.57746478873236,770.6853629274145C164.93427230046944,770.6853629274145,203.29107981220653,762.516584056926,241.64788732394362,758.3335333533354C280.0046948356807,754.1504826497447,318.3615023474178,745.5870587058706,356.7183098591549,745.5870587058706C395.075117370892,745.5870587058706,433.43192488262906,746.1092006877587,471.78873239436615,747.1534846515349C510.14553990610324,748.197768615311,548.5023474178404,754.3298329832984,586.8591549295775,754.3298329832984C625.2159624413146,754.3298329832984,663.5727699530516,746.8126812681269,701.9295774647887,739.2955295529553L701.9295774647887,697.9511951195119C663.5727699530516,699.5445044504451,625.2159624413146,701.1378137813781,586.8591549295775,701.1378137813781C548.5023474178404,701.1378137813781,510.14553990610324,696.7930867145974,471.78873239436615,696.1777822217778C433.43192488262906,695.5624777289581,395.075117370892,695.2548254825483,356.7183098591549,695.2548254825483C318.3615023474178,695.2548254825483,280.0046948356807,706.9071033878033,241.64788732394362,711.3513351335134C203.29107981220653,715.7955668792235,164.93427230046944,719.0710959133174,126.57746478873236,721.9202159568086C88.22065727699527,724.7693360002999,49.86384976525818,726.6076956973802,11.507042253521092,728.4460553944606Z"/></g><g class="series" pointer-events="none"><path class="area" transform="translate(45,10)" fill-opacity="0" fill="rgb(128, 128, 128)" clip-path="url(#clip-0-4)" d="M11.507042253521092,728.4460553944606C49.86384976525818,726.6076956973802,88.22065727699527,724.7693360002999,126.57746478873236,721.9202159568086C164.93427230046944,719.0710959133174,203.29107981220653,715.7955668792235,241.64788732394362,711.3513351335134C280.0046948356807,706.9071033878033,318.3615023474178,695.2548254825483,356.7183098591549,695.2548254825483C395.075117370892,695.2548254825483,433.43192488262906,695.5624777289581,471.78873239436615,696.1777822217778C510.14553990610324,696.7930867145974,548.5023474178404,701.1378137813781,586.8591549295775,701.1378137813781C625.2159624413146,701.1378137813781,663.5727699530516,699.5445044504451,701.9295774647887,697.9511951195119L701.9295774647887,644.2689268926893C663.5727699530516,638.4029192581959,625.2159624413146,632.5369116237024,586.8591549295775,626.8650865086508C548.5023474178404,621.1932613935993,510.14553990610324,614.2144405154777,471.78873239436615,610.2379762023797C433.43192488262906,606.2615118892818,395.075117370892,603.006300630063,356.7183098591549,603.006300630063C318.3615023474178,603.006300630063,280.0046948356807,603.959562622929,241.64788732394362,605.8660866086609C203.29107981220653,607.7726105943929,164.93427230046944,623.246350729854,126.57746478873236,623.246350729854C88.22065727699527,623.246350729854,49.86384976525818,619.5605316293006,11.507042253521092,615.8747125287471Z"/></g><g class="series" pointer-events="none"><path class="area" transform="translate(45,10)" fill-opacity="0" fill="rgb(128, 128, 128)" clip-path="url(#clip-0-5)" d="M11.507042253521092,615.8747125287471C49.86384976525818,619.5605316293006,88.22065727699527,623.246350729854,126.57746478873236,623.246350729854C164.93427230046944,623.246350729854,203.29107981220653,607.7726105943929,241.64788732394362,605.8660866086609C280.0046948356807,603.959562622929,318.3615023474178,603.006300630063,356.7183098591549,603.006300630063C395.075117370892,603.006300630063,433.43192488262906,606.2615118892818,471.78873239436615,610.2379762023797C510.14553990610324,614.2144405154777,548.5023474178404,621.1932613935993,586.8591549295775,626.8650865086508C625.2159624413146,632.5369116237024,663.5727699530516,638.4029192581959,701.9295774647887,644.2689268926893L701.9295774647887,322.011901190119C663.5727699530516,322.7608927559422,625.2159624413146,323.50988432176547,586.8591549295775,326.5058505850585C548.5023474178404,329.50181684835155,510.14553990610324,339.72774843061075,471.78873239436615,346.4550544945505C433.43192488262906,353.18236055849025,395.075117370892,362.1599174899325,356.7183098591549,366.8696869686969C318.3615023474178,371.57945644746127,280.0046948356807,369.4843484348435,241.64788732394362,374.7136713671368C203.29107981220653,379.94299429943004,164.93427230046944,402.4554089182164,126.57746478873236,402.4554089182164C88.22065727699527,402.4554089182164,49.86384976525818,399.45293193636047,11.507042253521092,396.45045495450455Z"/></g><g class="series" pointer-events="none"><path class="area" transform="translate(45,10)" fill-opacity="0" fill="rgb(128, 128, 128)" clip-path="url(#clip-0-6)" d="M11.507042253521092,396.45045495450455C49.86384976525818,399.45293193636047,88.22065727699527,402.4554089182164,126.57746478873236,402.4554089182164C164.93427230046944,402.4554089182164,203.29107981220653,379.94299429943004,241.64788732394362,374.7136713671368C280.0046948356807,369.4843484348435,318.3615023474178,371.57945644746127,356.7183098591549,366.8696869686969C395.075117370892,362.1599174899325,433.43192488262906,353.18236055849025,471.78873239436615,346.4550544945505C510.14553990610324,339.72774843061075,548.5023474178404,329.50181684835155,586.8591549295775,326.5058505850585C625.2159624413146,323.50988432176547,663.5727699530516,322.7608927559422,701.9295774647887,322.011901190119L701.9295774647887,211.29732973297325C663.5727699530516,217.38862443888627,625.2159624413146,223.4799191447993,586.8591549295775,228.61946194619475C548.5023474178404,233.75900474759018,510.14553990610324,238.60751716774192,471.78873239436615,242.13458654134593C433.43192488262906,245.66165591494993,395.075117370892,244.68368375683687,356.7183098591549,249.78187818781873C318.3615023474178,254.8800726188006,280.0046948356807,267.89663357457516,241.64788732394362,280.91269126912687C203.29107981220653,293.9287489636786,164.93427230046944,317.06341959198096,126.57746478873236,327.878224355129C88.22065727699527,338.6930291182771,49.86384976525818,342.2472744831461,11.507042253521092,345.8015198480151Z"/></g><g class="series" pointer-events="none"><path class="area" transform="translate(45,10)" fill-opacity="0" fill="#0F8554" clip-path="url(#clip-0-7)" d="M11.507042253521092,345.8015198480151C49.86384976525818,342.2472744831461,88.22065727699527,338.6930291182771,126.57746478873236,327.878224355129C164.93427230046944,317.06341959198096,203.29107981220653,293.9287489636786,241.64788732394362,280.91269126912687C280.0046948356807,267.89663357457516,318.3615023474178,254.8800726188006,356.7183098591549,249.78187818781873C395.075117370892,244.68368375683687,433.43192488262906,245.66165591494993,471.78873239436615,242.13458654134593C510.14553990610324,238.60751716774192,548.5023474178404,233.75900474759018,586.8591549295775,228.61946194619475C625.2159624413146,223.4799191447993,663.5727699530516,217.38862443888627,701.9295774647887,211.29732973297325L701.9295774647887,-2.2737367544323206e-13C663.5727699530516,-1.1368683772161603e-13,625.2159624413146,0,586.8591549295775,0C548.5023474178404,0,510.14553990610324,0,471.78873239436615,0C433.43192488262906,0,395.075117370892,0,356.7183098591549,0C318.3615023474178,0,280.0046948356807,0,241.64788732394362,0C203.29107981220653,0,164.93427230046944,0,126.57746478873236,0C88.22065727699527,0,49.86384976525818,0,11.507042253521092,0Z"/></g></g><g id="lines"><g class="series"><clipPath id="clip-0-0"><rect width="0" y="-10" height="837"/></clipPath><path class="line" opacity="1" fill="none" stroke="rgb(128, 128, 128)" stroke-width="2" transform="translate(45,10)" clip-path="url(#clip-0-0)" d="M63.288732394366164,804.5828417158284C101.64553990610324,805.2777735873683,140.00234741784033,805.9727054589082,178.35915492957741,805.9727054589082C216.7159624413145,805.9727054589082,255.0727699530516,805.835422334475,293.4295774647887,805.5608560856085C331.78638497652577,805.2862898367421,370.14319248826286,802.8644864486448,408.49999999999994,802.8644864486448C446.85680751173703,802.8644864486448,485.2136150234742,803.0306969303069,523.5704225352113,803.0306969303069C561.9272300469484,803.0306969303069,600.2840375586854,802.3066129713994,638.6408450704225,802.047404740474C676.9976525821596,801.7881965095486,715.3544600938967,801.6318220271515,753.7112676056338,801.4754475447545L753.7112676056338,801.4754475447545C715.3544600938967,801.6318220271515,676.9976525821596,801.7881965095486,638.6408450704225,802.047404740474C600.2840375586854,802.3066129713994,561.9272300469484,803.0306969303069,523.5704225352113,803.0306969303069C485.2136150234742,803.0306969303069,446.85680751173703,802.8644864486448,408.49999999999994,802.8644864486448C370.14319248826286,802.8644864486448,331.78638497652577,805.2862898367421,293.4295774647887,805.5608560856085C255.0727699530516,805.835422334475,216.7159624413145,805.9727054589082,178.35915492957741,805.9727054589082C140.00234741784033,805.9727054589082,101.64553990610324,805.2777735873683,63.288732394366164,804.5828417158284Z"/><text class="label" font-size="11" alignment-baseline="middle" opacity="0" x="5" fill="rgb(128, 128, 128)" transform="translate(798.7112676056338,811.4754475447545)"/></g><g class="series"><clipPath id="clip-0-1"><rect width="0" y="-10" height="837"/></clipPath><path class="line" opacity="1" fill="none" stroke="rgb(128, 128, 128)" stroke-width="2" transform="translate(45,10)" clip-path="url(#clip-0-1)" d="M63.288732394366164,776.8076192380762C101.64553990610324,780.6079187972024,140.00234741784033,784.4082183563287,178.35915492957741,784.4082183563287C216.7159624413145,784.4082183563287,255.0727699530516,780.6398639863986,293.4295774647887,780.4764476447644C331.78638497652577,780.3130313031303,370.14319248826286,780.2313231323133,408.49999999999994,780.2313231323133C446.85680751173703,780.2313231323133,485.2136150234742,782.8798056754647,523.5704225352113,784.0781921807819C561.9272300469484,785.2765786860991,600.2840375586854,787.4216421642165,638.6408450704225,787.4216421642165C676.9976525821596,787.4216421642165,715.3544600938967,786.2777277727773,753.7112676056338,785.1338133813381L753.7112676056338,785.1338133813381C715.3544600938967,786.2777277727773,676.9976525821596,787.4216421642165,638.6408450704225,787.4216421642165C600.2840375586854,787.4216421642165,561.9272300469484,785.2765786860991,523.5704225352113,784.0781921807819C485.2136150234742,782.8798056754647,446.85680751173703,780.2313231323133,408.49999999999994,780.2313231323133C370.14319248826286,780.2313231323133,331.78638497652577,780.3130313031303,293.4295774647887,780.4764476447644C255.0727699530516,780.6398639863986,216.7159624413145,784.4082183563287,178.35915492957741,784.4082183563287C140.00234741784033,784.4082183563287,101.64553990610324,780.6079187972024,63.288732394366164,776.8076192380762Z"/><text class="label" font-size="11" alignment-baseline="middle" opacity="0" x="5" fill="rgb(128, 128, 128)" transform="translate(798.7112676056338,795.1338133813381)"/></g><g class="series"><clipPath id="clip-0-2"><rect width="0" y="-10" height="837"/></clipPath><path class="line" opacity="1" fill="none" stroke="rgb(128, 128, 128)" stroke-width="2" transform="translate(45,10)" clip-path="url(#clip-0-2)" d="M63.288732394366164,766.6778322167784C101.64553990610324,768.6815975720964,140.00234741784033,770.6853629274145,178.35915492957741,770.6853629274145C216.7159624413145,770.6853629274145,255.0727699530516,762.516584056926,293.4295774647887,758.3335333533354C331.78638497652577,754.1504826497447,370.14319248826286,745.5870587058706,408.49999999999994,745.5870587058706C446.85680751173703,745.5870587058706,485.2136150234742,746.1092006877587,523.5704225352113,747.1534846515349C561.9272300469484,748.197768615311,600.2840375586854,754.3298329832984,638.6408450704225,754.3298329832984C676.9976525821596,754.3298329832984,715.3544600938967,746.8126812681269,753.7112676056338,739.2955295529553L753.7112676056338,739.2955295529553C715.3544600938967,746.8126812681269,676.9976525821596,754.3298329832984,638.6408450704225,754.3298329832984C600.2840375586854,754.3298329832984,561.9272300469484,748.197768615311,523.5704225352113,747.1534846515349C485.2136150234742,746.1092006877587,446.85680751173703,745.5870587058706,408.49999999999994,745.5870587058706C370.14319248826286,745.5870587058706,331.78638497652577,754.1504826497447,293.4295774647887,758.3335333533354C255.0727699530516,762.516584056926,216.7159624413145,770.6853629274145,178.35915492957741,770.6853629274145C140.00234741784033,770.6853629274145,101.64553990610324,768.6815975720964,63.288732394366164,766.6778322167784Z"/><text class="label" font-size="11" alignment-baseline="middle" opacity="0" x="5" fill="rgb(128, 128, 128)" transform="translate(798.7112676056338,749.2955295529553)"/></g><g class="series"><clipPath id="clip-0-3"><rect width="0" y="-10" height="837"/></clipPath><path class="line" opacity="1" fill="none" stroke="rgb(128, 128, 128)" stroke-width="2" transform="translate(45,10)" clip-path="url(#clip-0-3)" d="M63.288732394366164,728.4460553944606C101.64553990610324,726.6076956973802,140.00234741784033,724.7693360002999,178.35915492957741,721.9202159568086C216.7159624413145,719.0710959133174,255.0727699530516,715.7955668792235,293.4295774647887,711.3513351335134C331.78638497652577,706.9071033878033,370.14319248826286,695.2548254825483,408.49999999999994,695.2548254825483C446.85680751173703,695.2548254825483,485.2136150234742,695.5624777289581,523.5704225352113,696.1777822217778C561.9272300469484,696.7930867145974,600.2840375586854,701.1378137813781,638.6408450704225,701.1378137813781C676.9976525821596,701.1378137813781,715.3544600938967,699.5445044504451,753.7112676056338,697.9511951195119L753.7112676056338,697.9511951195119C715.3544600938967,699.5445044504451,676.9976525821596,701.1378137813781,638.6408450704225,701.1378137813781C600.2840375586854,701.1378137813781,561.9272300469484,696.7930867145974,523.5704225352113,696.1777822217778C485.2136150234742,695.5624777289581,446.85680751173703,695.2548254825483,408.49999999999994,695.2548254825483C370.14319248826286,695.2548254825483,331.78638497652577,706.9071033878033,293.4295774647887,711.3513351335134C255.0727699530516,715.7955668792235,216.7159624413145,719.0710959133174,178.35915492957741,721.9202159568086C140.00234741784033,724.7693360002999,101.64553990610324,726.6076956973802,63.288732394366164,728.4460553944606Z"/><text class="label" font-size="11" alignment-baseline="middle" opacity="0" x="5" fill="rgb(128, 128, 128)" transform="translate(798.7112676056338,707.9511951195119)"/></g><g class="series"><clipPath id="clip-0-4"><rect width="0" y="-10" height="837"/></clipPath><path class="line" opacity="1" fill="none" stroke="rgb(128, 128, 128)" stroke-width="2" transform="translate(45,10)" clip-path="url(#clip-0-4)" d="M63.288732394366164,615.8747125287471C101.64553990610324,619.5605316293005,140.00234741784033,623.246350729854,178.35915492957741,623.246350729854C216.7159624413145,623.246350729854,255.0727699530516,607.7726105943929,293.4295774647887,605.8660866086609C331.78638497652577,603.959562622929,370.14319248826286,603.006300630063,408.49999999999994,603.006300630063C446.85680751173703,603.006300630063,485.2136150234742,606.2615118892818,523.5704225352113,610.2379762023797C561.9272300469484,614.2144405154777,600.2840375586854,621.1932613935993,638.6408450704225,626.8650865086508C676.9976525821596,632.5369116237024,715.3544600938967,638.4029192581959,753.7112676056338,644.2689268926893L753.7112676056338,644.2689268926893C715.3544600938967,638.4029192581959,676.9976525821596,632.5369116237024,638.6408450704225,626.8650865086508C600.2840375586854,621.1932613935993,561.9272300469484,614.2144405154777,523.5704225352113,610.2379762023797C485.2136150234742,606.2615118892818,446.85680751173703,603.006300630063,408.49999999999994,603.006300630063C370.14319248826286,603.006300630063,331.78638497652577,603.959562622929,293.4295774647887,605.8660866086609C255.0727699530516,607.7726105943929,216.7159624413145,623.246350729854,178.35915492957741,623.246350729854C140.00234741784033,623.246350729854,101.64553990610324,619.5605316293005,63.288732394366164,615.8747125287471Z"/><text class="label" font-size="11" alignment-baseline="middle" opacity="0" x="5" fill="rgb(128, 128, 128)" transform="translate(798.7112676056338,654.2689268926893)"/></g><g class="series"><clipPath id="clip-0-5"><rect width="0" y="-10" height="837"/></clipPath><path class="line" opacity="1" fill="none" stroke="rgb(128, 128, 128)" stroke-width="2" transform="translate(45,10)" clip-path="url(#clip-0-5)" d="M63.288732394366164,396.45045495450455C101.64553990610324,399.45293193636047,140.00234741784033,402.4554089182164,178.35915492957741,402.4554089182164C216.7159624413145,402.4554089182164,255.0727699530516,379.94299429943004,293.4295774647887,374.7136713671368C331.78638497652577,369.4843484348435,370.14319248826286,371.57945644746127,408.49999999999994,366.8696869686969C446.85680751173703,362.1599174899325,485.2136150234742,353.18236055849025,523.5704225352113,346.4550544945505C561.9272300469484,339.72774843061075,600.2840375586854,329.50181684835155,638.6408450704225,326.5058505850585C676.9976525821596,323.50988432176547,715.3544600938967,322.7608927559422,753.7112676056338,322.011901190119L753.7112676056338,322.011901190119C715.3544600938967,322.7608927559422,676.9976525821596,323.50988432176547,638.6408450704225,326.5058505850585C600.2840375586854,329.50181684835155,561.9272300469484,339.72774843061075,523.5704225352113,346.4550544945505C485.2136150234742,353.18236055849025,446.85680751173703,362.1599174899325,408.49999999999994,366.8696869686969C370.14319248826286,371.57945644746127,331.78638497652577,369.4843484348435,293.4295774647887,374.7136713671368C255.0727699530516,379.94299429943004,216.7159624413145,402.4554089182164,178.35915492957741,402.4554089182164C140.00234741784033,402.4554089182164,101.64553990610324,399.45293193636047,63.288732394366164,396.45045495450455Z"/><text class="label" font-size="11" alignment-baseline="middle" opacity="0" x="5" fill="rgb(128, 128, 128)" transform="translate(798.7112676056338,332.011901190119)"/></g><g class="series"><clipPath id="clip-0-6"><rect width="0" y="-10" height="837"/></clipPath><path class="line" opacity="1" fill="none" stroke="rgb(128, 128, 128)" stroke-width="2" transform="translate(45,10)" clip-path="url(#clip-0-6)" d="M63.288732394366164,345.8015198480151C101.64553990610324,342.2472744831461,140.00234741784033,338.6930291182771,178.35915492957741,327.878224355129C216.7159624413145,317.06341959198096,255.0727699530516,293.9287489636786,293.4295774647887,280.91269126912687C331.78638497652577,267.89663357457516,370.14319248826286,254.8800726188006,408.49999999999994,249.78187818781873C446.85680751173703,244.68368375683687,485.2136150234742,245.66165591494993,523.5704225352113,242.13458654134593C561.9272300469484,238.60751716774192,600.2840375586854,233.75900474759018,638.6408450704225,228.61946194619475C676.9976525821596,223.4799191447993,715.3544600938967,217.38862443888627,753.7112676056338,211.29732973297325L753.7112676056338,211.29732973297325C715.3544600938967,217.38862443888627,676.9976525821596,223.4799191447993,638.6408450704225,228.61946194619475C600.2840375586854,233.75900474759018,561.9272300469484,238.60751716774192,523.5704225352113,242.13458654134593C485.2136150234742,245.66165591494993,446.85680751173703,244.68368375683687,408.49999999999994,249.78187818781873C370.14319248826286,254.8800726188006,331.78638497652577,267.89663357457516,293.4295774647887,280.91269126912687C255.0727699530516,293.9287489636786,216.7159624413145,317.06341959198096,178.35915492957741,327.878224355129C140.00234741784033,338.6930291182771,101.64553990610324,342.2472744831461,63.288732394366164,345.8015198480151Z"/><text class="label" font-size="11" alignment-baseline="middle" opacity="0" x="5" fill="rgb(128, 128, 128)" transform="translate(798.7112676056338,221.29732973297325)"/></g><g class="series"><clipPath id="clip-0-7"><rect width="0" y="-10" height="837"/></clipPath><path class="line" opacity="1" fill="none" stroke="#0F8554" stroke-width="2" transform="translate(45,10)" clip-path="url(#clip-0-7)" d="M63.288732394366164,0C101.64553990610324,0,140.00234741784033,0,178.35915492957741,0C216.7159624413145,0,255.0727699530516,0,293.4295774647887,0C331.78638497652577,0,370.14319248826286,0,408.49999999999994,0C446.85680751173703,0,485.2136150234742,0,523.5704225352113,0C561.9272300469484,0,600.2840375586854,0,638.6408450704225,0C676.9976525821596,0,715.3544600938967,-1.1368683772161603e-13,753.7112676056338,-2.2737367544323206e-13L753.7112676056338,-2.2737367544323206e-13C715.3544600938967,-1.1368683772161603e-13,676.9976525821596,0,638.6408450704225,0C600.2840375586854,0,561.9272300469484,0,523.5704225352113,0C485.2136150234742,0,446.85680751173703,0,408.49999999999994,0C370.14319248826286,0,331.78638497652577,0,293.4295774647887,0C255.0727699530516,0,216.7159624413145,0,178.35915492957741,0C140.00234741784033,0,101.64553990610324,0,63.288732394366164,0Z"/><text class="label" font-size="11" alignment-baseline="middle" opacity="0" x="5" fill="#0F8554" transform="translate(798.7112676056338,9.999999999999773)"/></g></g><g id="data-points"><g class="series" transform="translate(45,10)"><path class="data-point" data-type="column" opacity="0.9" fill="rgb(128, 128, 128)" d="M11.507042253521092,804.5828417158284L115.07042253521124,804.5828417158284L115.07042253521124,817L11.507042253521092,817Z" transform="translate(0, 0)" id="point-0-0"/><path class="data-point" data-type="column" opacity="0.9" fill="rgb(128, 128, 128)" d="M126.57746478873236,805.9727054589082L230.1408450704225,805.9727054589082L230.1408450704225,817L126.57746478873236,817Z" transform="translate(0, 0)" id="point-0-1"/><path class="data-point" data-type="column" opacity="0.9" fill="rgb(128, 128, 128)" d="M241.64788732394362,805.5608560856085L345.2112676056338,805.5608560856085L345.2112676056338,817L241.64788732394362,817Z" transform="translate(0, 0)" id="point-0-2"/><path class="data-point" data-type="column" opacity="0.9" fill="rgb(128, 128, 128)" d="M356.7183098591549,802.8644864486448L460.28169014084506,802.8644864486448L460.28169014084506,817L356.7183098591549,817Z" transform="translate(0, 0)" id="point-0-3"/><path class="data-point" data-type="column" opacity="0.9" fill="rgb(128, 128, 128)" d="M471.78873239436615,803.0306969303069L575.3521126760563,803.0306969303069L575.3521126760563,817L471.78873239436615,817Z" transform="translate(0, 0)" id="point-0-4"/><path class="data-point" data-type="column" opacity="0.9" fill="rgb(128, 128, 128)" d="M586.8591549295775,802.047404740474L690.4225352112676,802.047404740474L690.4225352112676,817L586.8591549295775,817Z" transform="translate(0, 0)" id="point-0-5"/><path class="data-point" data-type="column" opacity="0.9" fill="rgb(128, 128, 128)" d="M701.9295774647887,801.4754475447545L805.4929577464789,801.4754475447545L805.4929577464789,817L701.9295774647887,817Z" transform="translate(0, 0)" id="point-0-6"/><g class="data-label" text-anchor="middle" font-size="16px" pointer-events="none" opacity="1" transform="translate(63.288732394366164,820.5828417158284)"><text class="back" stroke-width="2.4" stroke="#f7f7f7"><tspan class="label"/><tspan class="value" x="0" dy="0"/></text><text class="front" fill="gray"><tspan class="label"/><tspan class="value" x="0" dy="0"/></text></g><g class="data-label" text-anchor="middle" font-size="16px" pointer-events="none" opacity="1" transform="translate(178.35915492957741,821.9727054589082)"><text class="back" stroke-width="2.4" stroke="#f7f7f7"><tspan class="label"/><tspan class="value" x="0" dy="0"/></text><text class="front" fill="gray"><tspan class="label"/><tspan class="value" x="0" dy="0"/></text></g><g class="data-label" text-anchor="middle" font-size="16px" pointer-events="none" opacity="1" transform="translate(293.4295774647887,821.5608560856085)"><text class="back" stroke-width="2.4" stroke="#f7f7f7"><tspan class="label"/><tspan class="value" x="0" dy="0"/></text><text class="front" fill="gray"><tspan class="label"/><tspan class="value" x="0" dy="0"/></text></g><g class="data-label" text-anchor="middle" font-size="16px" pointer-events="none" opacity="1" transform="translate(408.49999999999994,818.8644864486448)"><text class="back" stroke-width="2.4" stroke="#f7f7f7"><tspan class="label"/><tspan class="value" x="0" dy="0"/></text><text class="front" fill="gray"><tspan class="label"/><tspan class="value" x="0" dy="0"/></text></g><g class="data-label" text-anchor="middle" font-size="16px" pointer-events="none" opacity="1" transform="translate(523.5704225352113,819.0306969303069)"><text class="back" stroke-width="2.4" stroke="#f7f7f7"><tspan class="label"/><tspan class="value" x="0" dy="0"/></text><text class="front" fill="gray"><tspan class="label"/><tspan class="value" x="0" dy="0"/></text></g><g class="data-label" text-anchor="middle" font-size="16px" pointer-events="none" opacity="1" transform="translate(638.6408450704225,818.047404740474)"><text class="back" stroke-width="2.4" stroke="#f7f7f7"><tspan class="label"/><tspan class="value" x="0" dy="0"/></text><text class="front" fill="gray"><tspan class="label"/><tspan class="value" x="0" dy="0"/></text></g><g class="data-label" text-anchor="middle" font-size="16px" pointer-events="none" opacity="1" transform="translate(753.7112676056338,817.4754475447545)"><text class="back" stroke-width="2.4" stroke="#f7f7f7"><tspan class="label"/><tspan class="value" x="0" dy="0"/></text><text class="front" fill="gray"><tspan class="label"/><tspan class="value" x="0" dy="0"/></text></g></g><g class="series" transform="translate(45,10)"><path class="data-point" data-type="column" opacity="0.9" fill="rgb(128, 128, 128)" d="M11.507042253521092,776.8076192380762L115.07042253521124,776.8076192380762L115.07042253521124,804.5828417158284L11.507042253521092,804.5828417158284Z" transform="translate(0, 0)" id="point-1-0"/><path class="data-point" data-type="column" opacity="0.9" fill="rgb(128, 128, 128)" d="M126.57746478873236,784.4082183563287L230.1408450704225,784.4082183563287L230.1408450704225,805.9727054589082L126.57746478873236,805.9727054589082Z" transform="translate(0, 0)" id="point-1-1"/><path class="data-point" data-type="column" opacity="0.9" fill="rgb(128, 128, 128)" d="M241.64788732394362,780.4764476447644L345.2112676056338,780.4764476447644L345.2112676056338,805.5608560856085L241.64788732394362,805.5608560856085Z" transform="translate(0, 0)" id="point-1-2"/><path class="data-point" data-type="column" opacity="0.9" fill="rgb(128, 128, 128)" d="M356.7183098591549,780.2313231323133L460.28169014084506,780.2313231323133L460.28169014084506,802.8644864486448L356.7183098591549,802.8644864486448Z" transform="translate(0, 0)" id="point-1-3"/><path class="data-point" data-type="column" opacity="0.9" fill="rgb(128, 128, 128)" d="M471.78873239436615,784.0781921807819L575.3521126760563,784.0781921807819L575.3521126760563,803.0306969303069L471.78873239436615,803.0306969303069Z" transform="translate(0, 0)" id="point-1-4"/><path class="data-point" data-type="column" opacity="0.9" fill="rgb(128, 128, 128)" d="M586.8591549295775,787.4216421642165L690.4225352112676,787.4216421642165L690.4225352112676,802.047404740474L586.8591549295775,802.047404740474Z" transform="translate(0, 0)" id="point-1-5"/><path class="data-point" data-type="column" opacity="0.9" fill="rgb(128, 128, 128)" d="M701.9295774647887,785.1338133813381L805.4929577464789,785.1338133813381L805.4929577464789,801.4754475447545L701.9295774647887,801.4754475447545Z" transform="translate(0, 0)" id="point-1-6"/><g class="data-label" text-anchor="middle" font-size="16px" pointer-events="none" opacity="1" transform="translate(63.288732394366164,792.8076192380762)"><text class="back" stroke-width="2.4" stroke="#f7f7f7"><tspan class="label"/><tspan class="value" x="0" dy="0"/></text><text class="front" fill="gray"><tspan class="label"/><tspan class="value" x="0" dy="0"/></text></g><g class="data-label" text-anchor="middle" font-size="16px" pointer-events="none" opacity="1" transform="translate(178.35915492957741,800.4082183563287)"><text class="back" stroke-width="2.4" stroke="#f7f7f7"><tspan class="label"/><tspan class="value" x="0" dy="0"/></text><text class="front" fill="gray"><tspan class="label"/><tspan class="value" x="0" dy="0"/></text></g><g class="data-label" text-anchor="middle" font-size="16px" pointer-events="none" opacity="1" transform="translate(293.4295774647887,796.4764476447644)"><text class="back" stroke-width="2.4" stroke="#f7f7f7"><tspan class="label"/><tspan class="value" x="0" dy="0"/></text><text class="front" fill="gray"><tspan class="label"/><tspan class="value" x="0" dy="0"/></text></g><g class="data-label" text-anchor="middle" font-size="16px" pointer-events="none" opacity="1" transform="translate(408.49999999999994,796.2313231323133)"><text class="back" stroke-width="2.4" stroke="#f7f7f7"><tspan class="label"/><tspan class="value" x="0" dy="0"/></text><text class="front" fill="gray"><tspan class="label"/><tspan class="value" x="0" dy="0"/></text></g><g class="data-label" text-anchor="middle" font-size="16px" pointer-events="none" opacity="1" transform="translate(523.5704225352113,800.0781921807819)"><text class="back" stroke-width="2.4" stroke="#f7f7f7"><tspan class="label"/><tspan class="value" x="0" dy="0"/></text><text class="front" fill="gray"><tspan class="label"/><tspan class="value" x="0" dy="0"/></text></g><g class="data-label" text-anchor="middle" font-size="16px" pointer-events="none" opacity="1" transform="translate(638.6408450704225,803.4216421642165)"><text class="back" stroke-width="2.4" stroke="#f7f7f7"><tspan class="label"/><tspan class="value" x="0" dy="0"/></text><text class="front" fill="gray"><tspan class="label"/><tspan class="value" x="0" dy="0"/></text></g><g class="data-label" text-anchor="middle" font-size="16px" pointer-events="none" opacity="1" transform="translate(753.7112676056338,801.1338133813381)"><text class="back" stroke-width="2.4" stroke="#f7f7f7"><tspan class="label"/><tspan class="value" x="0" dy="0"/></text><text class="front" fill="gray"><tspan class="label"/><tspan class="value" x="0" dy="0"/></text></g></g><g class="series" transform="translate(45,10)"><path class="data-point" data-type="column" opacity="0.9" fill="rgb(128, 128, 128)" d="M11.507042253521092,766.6778322167784L115.07042253521124,766.6778322167784L115.07042253521124,776.8076192380762L11.507042253521092,776.8076192380762Z" transform="translate(0, 0)" id="point-2-0"/><path class="data-point" data-type="column" opacity="0.9" fill="rgb(128, 128, 128)" d="M126.57746478873236,770.6853629274145L230.1408450704225,770.6853629274145L230.1408450704225,784.4082183563287L126.57746478873236,784.4082183563287Z" transform="translate(0, 0)" id="point-2-1"/><path class="data-point" data-type="column" opacity="0.9" fill="rgb(128, 128, 128)" d="M241.64788732394362,758.3335333533354L345.2112676056338,758.3335333533354L345.2112676056338,780.4764476447644L241.64788732394362,780.4764476447644Z" transform="translate(0, 0)" id="point-2-2"/><path class="data-point" data-type="column" opacity="0.9" fill="rgb(128, 128, 128)" d="M356.7183098591549,745.5870587058706L460.28169014084506,745.5870587058706L460.28169014084506,780.2313231323133L356.7183098591549,780.2313231323133Z" transform="translate(0, 0)" id="point-2-3"/><path class="data-point" data-type="column" opacity="0.9" fill="rgb(128, 128, 128)" d="M471.78873239436615,747.1534846515349L575.3521126760563,747.1534846515349L575.3521126760563,784.0781921807819L471.78873239436615,784.0781921807819Z" transform="translate(0, 0)" id="point-2-4"/><path class="data-point" data-type="column" opacity="0.9" fill="rgb(128, 128, 128)" d="M586.8591549295775,754.3298329832984L690.4225352112676,754.3298329832984L690.4225352112676,787.4216421642165L586.8591549295775,787.4216421642165Z" transform="translate(0, 0)" id="point-2-5"/><path class="data-point" data-type="column" opacity="0.9" fill="rgb(128, 128, 128)" d="M701.9295774647887,739.2955295529553L805.4929577464789,739.2955295529553L805.4929577464789,785.1338133813381L701.9295774647887,785.1338133813381Z" transform="translate(0, 0)" id="point-2-6"/><g class="data-label" text-anchor="middle" font-size="16px" pointer-events="none" opacity="1" transform="translate(63.288732394366164,782.6778322167784)"><text class="back" stroke-width="2.4" stroke="#f7f7f7"><tspan class="label"/><tspan class="value" x="0" dy="0"/></text><text class="front" fill="gray"><tspan class="label"/><tspan class="value" x="0" dy="0"/></text></g><g class="data-label" text-anchor="middle" font-size="16px" pointer-events="none" opacity="1" transform="translate(178.35915492957741,786.6853629274145)"><text class="back" stroke-width="2.4" stroke="#f7f7f7"><tspan class="label"/><tspan class="value" x="0" dy="0"/></text><text class="front" fill="gray"><tspan class="label"/><tspan class="value" x="0" dy="0"/></text></g><g class="data-label" text-anchor="middle" font-size="16px" pointer-events="none" opacity="1" transform="translate(293.4295774647887,774.3335333533354)"><text class="back" stroke-width="2.4" stroke="#f7f7f7"><tspan class="label"/><tspan class="value" x="0" dy="0"/></text><text class="front" fill="gray"><tspan class="label"/><tspan class="value" x="0" dy="0"/></text></g><g class="data-label" text-anchor="middle" font-size="16px" pointer-events="none" opacity="1" transform="translate(408.49999999999994,761.5870587058706)"><text class="back" stroke-width="2.4" stroke="#f7f7f7"><tspan class="label"/><tspan class="value" x="0" dy="0"/></text><text class="front" fill="gray"><tspan class="label"/><tspan class="value" x="0" dy="0"/></text></g><g class="data-label" text-anchor="middle" font-size="16px" pointer-events="none" opacity="1" transform="translate(523.5704225352113,763.1534846515349)"><text class="back" stroke-width="2.4" stroke="#f7f7f7"><tspan class="label"/><tspan class="value" x="0" dy="0"/></text><text class="front" fill="gray"><tspan class="label"/><tspan class="value" x="0" dy="0"/></text></g><g class="data-label" text-anchor="middle" font-size="16px" pointer-events="none" opacity="1" transform="translate(638.6408450704225,770.3298329832984)"><text class="back" stroke-width="2.4" stroke="#f7f7f7"><tspan class="label"/><tspan class="value" x="0" dy="0"/></text><text class="front" fill="gray"><tspan class="label"/><tspan class="value" x="0" dy="0"/></text></g><g class="data-label" text-anchor="middle" font-size="16px" pointer-events="none" opacity="1" transform="translate(753.7112676056338,755.2955295529553)"><text class="back" stroke-width="2.4" stroke="#f7f7f7"><tspan class="label"/><tspan class="value" x="0" dy="0"/></text><text class="front" fill="gray"><tspan class="label"/><tspan class="value" x="0" dy="0"/></text></g></g><g class="series" transform="translate(45,10)"><path class="data-point" data-type="column" opacity="0.9" fill="rgb(128, 128, 128)" d="M11.507042253521092,728.4460553944606L115.07042253521124,728.4460553944606L115.07042253521124,766.6778322167784L11.507042253521092,766.6778322167784Z" transform="translate(0, 0)" id="point-3-0"/><path class="data-point" data-type="column" opacity="0.9" fill="rgb(128, 128, 128)" d="M126.57746478873236,721.9202159568086L230.1408450704225,721.9202159568086L230.1408450704225,770.6853629274145L126.57746478873236,770.6853629274145Z" transform="translate(0, 0)" id="point-3-1"/><path class="data-point" data-type="column" opacity="0.9" fill="rgb(128, 128, 128)" d="M241.64788732394362,711.3513351335134L345.2112676056338,711.3513351335134L345.2112676056338,758.3335333533354L241.64788732394362,758.3335333533354Z" transform="translate(0, 0)" id="point-3-2"/><path class="data-point" data-type="column" opacity="0.9" fill="rgb(128, 128, 128)" d="M356.7183098591549,695.2548254825483L460.28169014084506,695.2548254825483L460.28169014084506,745.5870587058706L356.7183098591549,745.5870587058706Z" transform="translate(0, 0)" id="point-3-3"/><path class="data-point" data-type="column" opacity="0.9" fill="rgb(128, 128, 128)" d="M471.78873239436615,696.1777822217778L575.3521126760563,696.1777822217778L575.3521126760563,747.1534846515349L471.78873239436615,747.1534846515349Z" transform="translate(0, 0)" id="point-3-4"/><path class="data-point" data-type="column" opacity="0.9" fill="rgb(128, 128, 128)" d="M586.8591549295775,701.1378137813781L690.4225352112676,701.1378137813781L690.4225352112676,754.3298329832984L586.8591549295775,754.3298329832984Z" transform="translate(0, 0)" id="point-3-5"/><path class="data-point" data-type="column" opacity="0.9" fill="rgb(128, 128, 128)" d="M701.9295774647887,697.9511951195119L805.4929577464789,697.9511951195119L805.4929577464789,739.2955295529553L701.9295774647887,739.2955295529553Z" transform="translate(0, 0)" id="point-3-6"/><g class="data-label" text-anchor="middle" font-size="16px" pointer-events="none" opacity="1" transform="translate(63.288732394366164,744.4460553944606)"><text class="back" stroke-width="2.4" stroke="#f7f7f7"><tspan class="label"/><tspan class="value" x="0" dy="0"/></text><text class="front" fill="gray"><tspan class="label"/><tspan class="value" x="0" dy="0"/></text></g><g class="data-label" text-anchor="middle" font-size="16px" pointer-events="none" opacity="1" transform="translate(178.35915492957741,737.9202159568086)"><text class="back" stroke-width="2.4" stroke="#f7f7f7"><tspan class="label"/><tspan class="value" x="0" dy="0"/></text><text class="front" fill="gray"><tspan class="label"/><tspan class="value" x="0" dy="0"/></text></g><g class="data-label" text-anchor="middle" font-size="16px" pointer-events="none" opacity="1" transform="translate(293.4295774647887,727.3513351335134)"><text class="back" stroke-width="2.4" stroke="#f7f7f7"><tspan class="label"/><tspan class="value" x="0" dy="0"/></text><text class="front" fill="gray"><tspan class="label"/><tspan class="value" x="0" dy="0"/></text></g><g class="data-label" text-anchor="middle" font-size="16px" pointer-events="none" opacity="1" transform="translate(408.49999999999994,711.2548254825483)"><text class="back" stroke-width="2.4" stroke="#f7f7f7"><tspan class="label"/><tspan class="value" x="0" dy="0"/></text><text class="front" fill="gray"><tspan class="label"/><tspan class="value" x="0" dy="0"/></text></g><g class="data-label" text-anchor="middle" font-size="16px" pointer-events="none" opacity="1" transform="translate(523.5704225352113,712.1777822217778)"><text class="back" stroke-width="2.4" stroke="#f7f7f7"><tspan class="label"/><tspan class="value" x="0" dy="0"/></text><text class="front" fill="gray"><tspan class="label"/><tspan class="value" x="0" dy="0"/></text></g><g class="data-label" text-anchor="middle" font-size="16px" pointer-events="none" opacity="1" transform="translate(638.6408450704225,717.1378137813781)"><text class="back" stroke-width="2.4" stroke="#f7f7f7"><tspan class="label"/><tspan class="value" x="0" dy="0"/></text><text class="front" fill="gray"><tspan class="label"/><tspan class="value" x="0" dy="0"/></text></g><g class="data-label" text-anchor="middle" font-size="16px" pointer-events="none" opacity="1" transform="translate(753.7112676056338,713.9511951195119)"><text class="back" stroke-width="2.4" stroke="#f7f7f7"><tspan class="label"/><tspan class="value" x="0" dy="0"/></text><text class="front" fill="gray"><tspan class="label"/><tspan class="value" x="0" dy="0"/></text></g></g><g class="series" transform="translate(45,10)"><path class="data-point" data-type="column" opacity="0.9" fill="rgb(128, 128, 128)" d="M11.507042253521092,615.8747125287471L115.07042253521124,615.8747125287471L115.07042253521124,728.4460553944606L11.507042253521092,728.4460553944606Z" transform="translate(0, 0)" id="point-4-0"/><path class="data-point" data-type="column" opacity="0.9" fill="rgb(128, 128, 128)" d="M126.57746478873236,623.246350729854L230.1408450704225,623.246350729854L230.1408450704225,721.9202159568086L126.57746478873236,721.9202159568086Z" transform="translate(0, 0)" id="point-4-1"/><path class="data-point" data-type="column" opacity="0.9" fill="rgb(128, 128, 128)" d="M241.64788732394362,605.8660866086609L345.2112676056338,605.8660866086609L345.2112676056338,711.3513351335134L241.64788732394362,711.3513351335134Z" transform="translate(0, 0)" id="point-4-2"/><path class="data-point" data-type="column" opacity="0.9" fill="rgb(128, 128, 128)" d="M356.7183098591549,603.006300630063L460.28169014084506,603.006300630063L460.28169014084506,695.2548254825483L356.7183098591549,695.2548254825483Z" transform="translate(0, 0)" id="point-4-3"/><path class="data-point" data-type="column" opacity="0.9" fill="rgb(128, 128, 128)" d="M471.78873239436615,610.2379762023797L575.3521126760563,610.2379762023797L575.3521126760563,696.1777822217778L471.78873239436615,696.1777822217778Z" transform="translate(0, 0)" id="point-4-4"/><path class="data-point" data-type="column" opacity="0.9" fill="rgb(128, 128, 128)" d="M586.8591549295775,626.8650865086508L690.4225352112676,626.8650865086508L690.4225352112676,701.1378137813781L586.8591549295775,701.1378137813781Z" transform="translate(0, 0)" id="point-4-5"/><path class="data-point" data-type="column" opacity="0.9" fill="rgb(128, 128, 128)" d="M701.9295774647887,644.2689268926893L805.4929577464789,644.2689268926893L805.4929577464789,697.9511951195119L701.9295774647887,697.9511951195119Z" transform="translate(0, 0)" id="point-4-6"/><g class="data-label" text-anchor="middle" font-size="16px" pointer-events="none" opacity="1" transform="translate(63.288732394366164,631.8747125287471)"><text class="back" stroke-width="2.4" stroke="#f7f7f7"><tspan class="label"/><tspan class="value" x="0" dy="0"/></text><text class="front" fill="gray"><tspan class="label"/><tspan class="value" x="0" dy="0"/></text></g><g class="data-label" text-anchor="middle" font-size="16px" pointer-events="none" opacity="1" transform="translate(178.35915492957741,639.246350729854)"><text class="back" stroke-width="2.4" stroke="#f7f7f7"><tspan class="label"/><tspan class="value" x="0" dy="0"/></text><text class="front" fill="gray"><tspan class="label"/><tspan class="value" x="0" dy="0"/></text></g><g class="data-label" text-anchor="middle" font-size="16px" pointer-events="none" opacity="1" transform="translate(293.4295774647887,621.8660866086609)"><text class="back" stroke-width="2.4" stroke="#f7f7f7"><tspan class="label"/><tspan class="value" x="0" dy="0"/></text><text class="front" fill="gray"><tspan class="label"/><tspan class="value" x="0" dy="0"/></text></g><g class="data-label" text-anchor="middle" font-size="16px" pointer-events="none" opacity="1" transform="translate(408.49999999999994,619.006300630063)"><text class="back" stroke-width="2.4" stroke="#f7f7f7"><tspan class="label"/><tspan class="value" x="0" dy="0"/></text><text class="front" fill="gray"><tspan class="label"/><tspan class="value" x="0" dy="0"/></text></g><g class="data-label" text-anchor="middle" font-size="16px" pointer-events="none" opacity="1" transform="translate(523.5704225352113,626.2379762023797)"><text class="back" stroke-width="2.4" stroke="#f7f7f7"><tspan class="label"/><tspan class="value" x="0" dy="0"/></text><text class="front" fill="gray"><tspan class="label"/><tspan class="value" x="0" dy="0"/></text></g><g class="data-label" text-anchor="middle" font-size="16px" pointer-events="none" opacity="1" transform="translate(638.6408450704225,642.8650865086508)"><text class="back" stroke-width="2.4" stroke="#f7f7f7"><tspan class="label"/><tspan class="value" x="0" dy="0"/></text><text class="front" fill="gray"><tspan class="label"/><tspan class="value" x="0" dy="0"/></text></g><g class="data-label" text-anchor="middle" font-size="16px" pointer-events="none" opacity="1" transform="translate(753.7112676056338,660.2689268926893)"><text class="back" stroke-width="2.4" stroke="#f7f7f7"><tspan class="label"/><tspan class="value" x="0" dy="0"/></text><text class="front" fill="gray"><tspan class="label"/><tspan class="value" x="0" dy="0"/></text></g></g><g class="series" transform="translate(45,10)"><path class="data-point" data-type="column" opacity="0.9" fill="rgb(128, 128, 128)" d="M11.507042253521092,396.45045495450455L115.07042253521124,396.45045495450455L115.07042253521124,615.8747125287471L11.507042253521092,615.8747125287471Z" transform="translate(0, 0)" id="point-5-0"/><path class="data-point" data-type="column" opacity="0.9" fill="rgb(128, 128, 128)" d="M126.57746478873236,402.4554089182164L230.1408450704225,402.4554089182164L230.1408450704225,623.246350729854L126.57746478873236,623.246350729854Z" transform="translate(0, 0)" id="point-5-1"/><path class="data-point" data-type="column" opacity="0.9" fill="rgb(128, 128, 128)" d="M241.64788732394362,374.7136713671368L345.2112676056338,374.7136713671368L345.2112676056338,605.8660866086609L241.64788732394362,605.8660866086609Z" transform="translate(0, 0)" id="point-5-2"/><path class="data-point" data-type="column" opacity="0.9" fill="rgb(128, 128, 128)" d="M356.7183098591549,366.8696869686969L460.28169014084506,366.8696869686969L460.28169014084506,603.006300630063L356.7183098591549,603.006300630063Z" transform="translate(0, 0)" id="point-5-3"/><path class="data-point" data-type="column" opacity="0.9" fill="rgb(128, 128, 128)" d="M471.78873239436615,346.4550544945505L575.3521126760563,346.4550544945505L575.3521126760563,610.2379762023797L471.78873239436615,610.2379762023797Z" transform="translate(0, 0)" id="point-5-4"/><path class="data-point" data-type="column" opacity="0.9" fill="rgb(128, 128, 128)" d="M586.8591549295775,326.5058505850585L690.4225352112676,326.5058505850585L690.4225352112676,626.8650865086508L586.8591549295775,626.8650865086508Z" transform="translate(0, 0)" id="point-5-5"/><path class="data-point" data-type="column" opacity="0.9" fill="rgb(128, 128, 128)" d="M701.9295774647887,322.011901190119L805.4929577464789,322.011901190119L805.4929577464789,644.2689268926893L701.9295774647887,644.2689268926893Z" transform="translate(0, 0)" id="point-5-6"/><g class="data-label" text-anchor="middle" font-size="16px" pointer-events="none" opacity="1" transform="translate(63.288732394366164,412.45045495450455)"><text class="back" stroke-width="2.4" stroke="#f7f7f7"><tspan class="label"/><tspan class="value" x="0" dy="0"/></text><text class="front" fill="gray"><tspan class="label"/><tspan class="value" x="0" dy="0"/></text></g><g class="data-label" text-anchor="middle" font-size="16px" pointer-events="none" opacity="1" transform="translate(178.35915492957741,418.4554089182164)"><text class="back" stroke-width="2.4" stroke="#f7f7f7"><tspan class="label"/><tspan class="value" x="0" dy="0"/></text><text class="front" fill="gray"><tspan class="label"/><tspan class="value" x="0" dy="0"/></text></g><g class="data-label" text-anchor="middle" font-size="16px" pointer-events="none" opacity="1" transform="translate(293.4295774647887,390.7136713671368)"><text class="back" stroke-width="2.4" stroke="#f7f7f7"><tspan class="label"/><tspan class="value" x="0" dy="0"/></text><text class="front" fill="gray"><tspan class="label"/><tspan class="value" x="0" dy="0"/></text></g><g class="data-label" text-anchor="middle" font-size="16px" pointer-events="none" opacity="1" transform="translate(408.49999999999994,382.8696869686969)"><text class="back" stroke-width="2.4" stroke="#f7f7f7"><tspan class="label"/><tspan class="value" x="0" dy="0"/></text><text class="front" fill="gray"><tspan class="label"/><tspan class="value" x="0" dy="0"/></text></g><g class="data-label" text-anchor="middle" font-size="16px" pointer-events="none" opacity="1" transform="translate(523.5704225352113,362.4550544945505)"><text class="back" stroke-width="2.4" stroke="#f7f7f7"><tspan class="label"/><tspan class="value" x="0" dy="0"/></text><text class="front" fill="gray"><tspan class="label"/><tspan class="value" x="0" dy="0"/></text></g><g class="data-label" text-anchor="middle" font-size="16px" pointer-events="none" opacity="1" transform="translate(638.6408450704225,342.5058505850585)"><text class="back" stroke-width="2.4" stroke="#f7f7f7"><tspan class="label"/><tspan class="value" x="0" dy="0"/></text><text class="front" fill="gray"><tspan class="label"/><tspan class="value" x="0" dy="0"/></text></g><g class="data-label" text-anchor="middle" font-size="16px" pointer-events="none" opacity="1" transform="translate(753.7112676056338,338.011901190119)"><text class="back" stroke-width="2.4" stroke="#f7f7f7"><tspan class="label"/><tspan class="value" x="0" dy="0"/></text><text class="front" fill="gray"><tspan class="label"/><tspan class="value" x="0" dy="0"/></text></g></g><g class="series" transform="translate(45,10)"><path class="data-point" data-type="column" opacity="0.9" fill="rgb(128, 128, 128)" d="M11.507042253521092,345.8015198480151L115.07042253521124,345.8015198480151L115.07042253521124,396.45045495450455L11.507042253521092,396.45045495450455Z" transform="translate(0, 0)" id="point-6-0"/><path class="data-point" data-type="column" opacity="0.9" fill="rgb(128, 128, 128)" d="M126.57746478873236,327.878224355129L230.1408450704225,327.878224355129L230.1408450704225,402.4554089182164L126.57746478873236,402.4554089182164Z" transform="translate(0, 0)" id="point-6-1"/><path class="data-point" data-type="column" opacity="0.9" fill="rgb(128, 128, 128)" d="M241.64788732394362,280.91269126912687L345.2112676056338,280.91269126912687L345.2112676056338,374.7136713671368L241.64788732394362,374.7136713671368Z" transform="translate(0, 0)" id="point-6-2"/><path class="data-point" data-type="column" opacity="0.9" fill="rgb(128, 128, 128)" d="M356.7183098591549,249.78187818781873L460.28169014084506,249.78187818781873L460.28169014084506,366.8696869686969L356.7183098591549,366.8696869686969Z" transform="translate(0, 0)" id="point-6-3"/><path class="data-point" data-type="column" opacity="0.9" fill="rgb(128, 128, 128)" d="M471.78873239436615,242.13458654134593L575.3521126760563,242.13458654134593L575.3521126760563,346.4550544945505L471.78873239436615,346.4550544945505Z" transform="translate(0, 0)" id="point-6-4"/><path class="data-point" data-type="column" opacity="0.9" fill="rgb(128, 128, 128)" d="M586.8591549295775,228.61946194619475L690.4225352112676,228.61946194619475L690.4225352112676,326.5058505850585L586.8591549295775,326.5058505850585Z" transform="translate(0, 0)" id="point-6-5"/><path class="data-point" data-type="column" opacity="0.9" fill="rgb(128, 128, 128)" d="M701.9295774647887,211.29732973297325L805.4929577464789,211.29732973297325L805.4929577464789,322.011901190119L701.9295774647887,322.011901190119Z" transform="translate(0, 0)" id="point-6-6"/><g class="data-label" text-anchor="middle" font-size="16px" pointer-events="none" opacity="1" transform="translate(63.288732394366164,361.8015198480151)"><text class="back" stroke-width="2.4" stroke="#f7f7f7"><tspan class="label"/><tspan class="value" x="0" dy="0"/></text><text class="front" fill="gray"><tspan class="label"/><tspan class="value" x="0" dy="0"/></text></g><g class="data-label" text-anchor="middle" font-size="16px" pointer-events="none" opacity="1" transform="translate(178.35915492957741,343.878224355129)"><text class="back" stroke-width="2.4" stroke="#f7f7f7"><tspan class="label"/><tspan class="value" x="0" dy="0"/></text><text class="front" fill="gray"><tspan class="label"/><tspan class="value" x="0" dy="0"/></text></g><g class="data-label" text-anchor="middle" font-size="16px" pointer-events="none" opacity="1" transform="translate(293.4295774647887,296.91269126912687)"><text class="back" stroke-width="2.4" stroke="#f7f7f7"><tspan class="label"/><tspan class="value" x="0" dy="0"/></text><text class="front" fill="gray"><tspan class="label"/><tspan class="value" x="0" dy="0"/></text></g><g class="data-label" text-anchor="middle" font-size="16px" pointer-events="none" opacity="1" transform="translate(408.49999999999994,265.78187818781873)"><text class="back" stroke-width="2.4" stroke="#f7f7f7"><tspan class="label"/><tspan class="value" x="0" dy="0"/></text><text class="front" fill="gray"><tspan class="label"/><tspan class="value" x="0" dy="0"/></text></g><g class="data-label" text-anchor="middle" font-size="16px" pointer-events="none" opacity="1" transform="translate(523.5704225352113,258.1345865413459)"><text class="back" stroke-width="2.4" stroke="#f7f7f7"><tspan class="label"/><tspan class="value" x="0" dy="0"/></text><text class="front" fill="gray"><tspan class="label"/><tspan class="value" x="0" dy="0"/></text></g><g class="data-label" text-anchor="middle" font-size="16px" pointer-events="none" opacity="1" transform="translate(638.6408450704225,244.61946194619475)"><text class="back" stroke-width="2.4" stroke="#f7f7f7"><tspan class="label"/><tspan class="value" x="0" dy="0"/></text><text class="front" fill="gray"><tspan class="label"/><tspan class="value" x="0" dy="0"/></text></g><g class="data-label" text-anchor="middle" font-size="16px" pointer-events="none" opacity="1" transform="translate(753.7112676056338,227.29732973297325)"><text class="back" stroke-width="2.4" stroke="#f7f7f7"><tspan class="label"/><tspan class="value" x="0" dy="0"/></text><text class="front" fill="gray"><tspan class="label"/><tspan class="value" x="0" dy="0"/></text></g></g><g class="series" transform="translate(45,10)"><path class="data-point" data-type="column" opacity="0.9" fill="#0F8554" d="M11.507042253521092,0L115.07042253521124,0L115.07042253521124,345.8015198480151L11.507042253521092,345.8015198480151Z" transform="translate(0, 0)" id="point-7-0"/><path class="data-point" data-type="column" opacity="0.9" fill="#0F8554" d="M126.57746478873236,0L230.1408450704225,0L230.1408450704225,327.878224355129L126.57746478873236,327.878224355129Z" transform="translate(0, 0)" id="point-7-1"/><path class="data-point" data-type="column" opacity="0.9" fill="#0F8554" d="M241.64788732394362,0L345.2112676056338,0L345.2112676056338,280.91269126912687L241.64788732394362,280.91269126912687Z" transform="translate(0, 0)" id="point-7-2"/><path class="data-point" data-type="column" opacity="0.9" fill="#0F8554" d="M356.7183098591549,0L460.28169014084506,0L460.28169014084506,249.78187818781873L356.7183098591549,249.78187818781873Z" transform="translate(0, 0)" id="point-7-3"/><path class="data-point" data-type="column" opacity="0.9" fill="#0F8554" d="M471.78873239436615,0L575.3521126760563,0L575.3521126760563,242.13458654134593L471.78873239436615,242.13458654134593Z" transform="translate(0, 0)" id="point-7-4"/><path class="data-point" data-type="column" opacity="0.9" fill="#0F8554" d="M586.8591549295775,0L690.4225352112676,0L690.4225352112676,228.61946194619475L586.8591549295775,228.61946194619475Z" transform="translate(0, 0)" id="point-7-5"/><path class="data-point" data-type="column" opacity="0.9" fill="#0F8554" d="M701.9295774647887,-2.2737367544323206e-13L805.4929577464789,-2.2737367544323206e-13L805.4929577464789,211.29732973297325L701.9295774647887,211.29732973297325Z" transform="translate(0, 0)" id="point-7-6"/><g class="data-label" text-anchor="middle" font-size="16px" pointer-events="none" opacity="1" transform="translate(63.288732394366164,16)"><text class="back" stroke-width="2.4" stroke="#f7f7f7"><tspan class="label"/><tspan class="value" x="0" dy="0"/></text><text class="front" fill="#0F8554"><tspan class="label"/><tspan class="value" x="0" dy="0"/></text></g><g class="data-label" text-anchor="middle" font-size="16px" pointer-events="none" opacity="1" transform="translate(178.35915492957741,16)"><text class="back" stroke-width="2.4" stroke="#f7f7f7"><tspan class="label"/><tspan class="value" x="0" dy="0"/></text><text class="front" fill="#0F8554"><tspan class="label"/><tspan class="value" x="0" dy="0"/></text></g><g class="data-label" text-anchor="middle" font-size="16px" pointer-events="none" opacity="1" transform="translate(293.4295774647887,16)"><text class="back" stroke-width="2.4" stroke="#f7f7f7"><tspan class="label"/><tspan class="value" x="0" dy="0"/></text><text class="front" fill="#0F8554"><tspan class="label"/><tspan class="value" x="0" dy="0"/></text></g><g class="data-label" text-anchor="middle" font-size="16px" pointer-events="none" opacity="1" transform="translate(408.49999999999994,16)"><text class="back" stroke-width="2.4" stroke="#f7f7f7"><tspan class="label"/><tspan class="value" x="0" dy="0"/></text><text class="front" fill="#0F8554"><tspan class="label"/><tspan class="value" x="0" dy="0"/></text></g><g class="data-label" text-anchor="middle" font-size="16px" pointer-events="none" opacity="1" transform="translate(523.5704225352113,16)"><text class="back" stroke-width="2.4" stroke="#f7f7f7"><tspan class="label"/><tspan class="value" x="0" dy="0"/></text><text class="front" fill="#0F8554"><tspan class="label"/><tspan class="value" x="0" dy="0"/></text></g><g class="data-label" text-anchor="middle" font-size="16px" pointer-events="none" opacity="1" transform="translate(638.6408450704225,16)"><text class="back" stroke-width="2.4" stroke="#f7f7f7"><tspan class="label"/><tspan class="value" x="0" dy="0"/></text><text class="front" fill="#0F8554"><tspan class="label"/><tspan class="value" x="0" dy="0"/></text></g><g class="data-label" text-anchor="middle" font-size="16px" pointer-events="none" opacity="1" transform="translate(753.7112676056338,15.999999999999773)"><text class="back" stroke-width="2.4" stroke="#f7f7f7"><tspan class="label"/><tspan class="value" x="0" dy="0"/></text><text class="front" fill="#0F8554"><tspan class="label"/><tspan class="value" x="0" dy="0"/></text></g></g></g><g id="lines-secondary"/><g id="data-labels"/><g class="annotations above"><g class="axis-highlights" transform="translate(45, 10)" style="opacity: 1;"><g class="line y" transform="translate(0, 122.55000000000007)"><line width="0" stroke-dasharray="0 0" stroke="#ffffff" stroke-width="0" x2="817"/><text fill="#ffffff" x="408.5" text-anchor="middle" dy="-0.5em" font-size="12">Habitação</text></g><g class="line y" transform="translate(0, 318.63)"><line width="0" stroke-dasharray="0 0" stroke="#ffffff" stroke-width="0" x2="817"/><text fill="#ffffff" x="408.5" text-anchor="middle" dy="-0.5em" font-size="12">Transporte</text></g><g class="line y" transform="translate(0, 490.2)"><line width="0" stroke-dasharray="0 0" stroke="#ffffff" stroke-width="0" x2="817"/><text fill="#ffffff" x="408.5" text-anchor="middle" dy="-0.5em" font-size="12">Outras</text></g><g class="line y" transform="translate(0, 653.6)"><line width="0" stroke-dasharray="0 0" stroke="#ffffff" stroke-width="0" x2="817"/><text fill="#ffffff" x="408.5" text-anchor="middle" dy="-0.5em" font-size="12">Alimentação</text></g><g class="line y" transform="translate(0, 735.3)"><line width="0" stroke-dasharray="0 0" stroke="#ffffff" stroke-width="0" x2="817"/><text fill="#ffffff" x="408.5" text-anchor="middle" dy="-0.5em" font-size="12">Saúde</text></g><g class="line y" transform="translate(0, 776.15)"><line width="0" stroke-dasharray="0 0" stroke="#ffffff" stroke-width="0" x2="817"/><text fill="#ffffff" x="408.5" text-anchor="middle" dy="-0.5em" font-size="12">Educação</text></g><g class="line y" transform="translate(0, 800.66)"><line width="0" stroke-dasharray="0 0" stroke="#ffffff" stroke-width="0" x2="817"/><text fill="#ffffff" x="408.5" text-anchor="middle" dy="-0.5em" font-size="12">Vestuário</text></g><g class="line y" transform="translate(0, 822.3105)"><line width="0" stroke-dasharray="0 0" stroke="#ffffff" stroke-width="0" x2="817"/><text fill="#ffffff" x="408.5" text-anchor="middle" dy="-0.5em" font-size="12">Cultura</text></g></g></g></svg>